<svg xmlns="http://www.w3.org/2000/svg" xmlns:xlink="http://www.w3.org/1999/xlink" width="650" zoomAndPan="magnify" viewBox="0 0 487.5 262.499992" height="350" preserveAspectRatio="xMidYMid meet" version="1.0"><defs><g/><clipPath id="637f48ae95"><path d="M 48 81.019531 L 106.15625 81.019531 L 106.15625 197.050781 L 48 197.050781 Z M 48 81.019531 " clip-rule="nonzero"/></clipPath><clipPath id="5987de194c"><path d="M 107.28125 68.050781 L 166.417969 68.050781 L 166.417969 184.078125 L 107.28125 184.078125 Z M 107.28125 68.050781 " clip-rule="nonzero"/></clipPath><clipPath id="87b7999d9d"><path d="M 0.28125 0.0507812 L 58 0.0507812 L 58 116.078125 L 0.28125 116.078125 Z M 0.28125 0.0507812 " clip-rule="nonzero"/></clipPath><clipPath id="242408566e"><rect x="0" width="60" y="0" height="117"/></clipPath><clipPath id="22a71864e6"><rect x="0" width="275" y="0" height="61"/></clipPath><clipPath id="66b2b26421"><path d="M 278.074219 124.605469 L 298.285156 124.605469 L 298.285156 165.03125 L 278.074219 165.03125 Z M 278.074219 124.605469 " clip-rule="nonzero"/></clipPath><clipPath id="132c47d937"><path d="M 1 1 L 20.285156 1 L 20.285156 41 L 1 41 Z M 1 1 " clip-rule="nonzero"/></clipPath><clipPath id="c231d6dd16"><rect x="0" width="21" y="0" height="42"/></clipPath></defs><g clip-path="url(#637f48ae95)"><path fill="#000000" d="M 90.21875 81.058594 C 84.273438 81.058594 79.199219 84.734375 77.105469 89.9375 C 84.023438 91.605469 89.390625 97.605469 89.976562 104.949219 C 90.042969 105.746094 89.589844 106.492188 88.855469 106.808594 C 82.960938 109.335938 80.109375 116.242188 82.496094 122.203125 C 82.878906 123.15625 82.414062 124.238281 81.464844 124.621094 C 81.238281 124.710938 81.003906 124.753906 80.773438 124.753906 C 80.035156 124.753906 79.339844 124.3125 79.050781 123.585938 C 77.972656 120.894531 77.710938 118.058594 78.144531 115.355469 C 72.625 116.140625 68.226562 120.753906 67.929688 126.539062 C 67.875 127.53125 67.054688 128.300781 66.074219 128.300781 C 66.042969 128.300781 66.007812 128.300781 65.976562 128.300781 C 64.953125 128.246094 64.164062 127.371094 64.21875 126.347656 C 64.640625 118.195312 71.261719 111.808594 79.265625 111.535156 C 80.625 108.40625 82.984375 105.710938 86.117188 104.011719 C 85.023438 97.851562 79.574219 93.191406 73.203125 93.191406 C 70.199219 93.191406 67.300781 94.214844 65.015625 96.070312 C 61.089844 99.261719 60.101562 104.691406 61.273438 107.417969 C 56.503906 110.722656 53.378906 116.238281 53.378906 122.484375 C 53.378906 124.390625 53.667969 126.226562 54.207031 127.953125 L 54.226562 127.980469 C 48.628906 132.070312 47.0625 140.246094 50.84375 145.574219 C 52.835938 148.382812 56.464844 151.03125 59.925781 151.574219 C 62.726562 152.011719 65.523438 151.546875 67.992188 150.261719 C 67.765625 149.703125 67.582031 149.125 67.4375 148.527344 C 66.636719 145.226562 67.171875 141.808594 68.9375 138.910156 C 69.46875 138.03125 70.613281 137.753906 71.488281 138.289062 C 72.363281 138.824219 72.640625 139.96875 72.105469 140.84375 C 70.859375 142.898438 70.480469 145.3125 71.046875 147.652344 C 71.613281 149.988281 73.050781 151.964844 75.105469 153.214844 C 78.007812 154.988281 81.613281 154.976562 84.511719 153.191406 C 85.382812 152.652344 86.527344 152.925781 87.066406 153.796875 C 87.601562 154.671875 87.332031 155.816406 86.457031 156.355469 C 84.402344 157.625 82.09375 158.257812 79.785156 158.257812 C 77.5 158.257812 75.210938 157.636719 73.171875 156.390625 C 71.882812 155.601562 70.765625 154.613281 69.847656 153.464844 C 67.421875 154.765625 64.742188 155.453125 61.992188 155.453125 C 61.113281 155.453125 60.234375 155.386719 59.351562 155.246094 C 57.433594 154.945312 55.613281 154.328125 53.953125 153.433594 C 53.578125 154.890625 53.378906 156.414062 53.378906 157.988281 C 53.378906 164.273438 56.539062 169.816406 61.359375 173.113281 C 61.820312 182.328125 69.085938 189.738281 78.226562 190.433594 C 80.726562 194.429688 85.160156 197.089844 90.21875 197.089844 C 96.828125 197.089844 102.179688 192.617188 103.933594 186.539062 C 104.183594 185.667969 104.367188 184.621094 104.367188 183.640625 C 104.367188 183.640625 104.363281 94.820312 104.351562 94.65625 C 104.054688 87.097656 97.84375 81.058594 90.21875 81.058594 Z M 93.492188 178.902344 C 91.167969 181.375 87.996094 182.714844 84.722656 182.714844 C 83.589844 182.714844 82.449219 182.554688 81.324219 182.226562 C 78.230469 181.324219 75.671875 179.269531 74.125 176.445312 C 72.574219 173.617188 72.214844 170.351562 73.117188 167.257812 C 73.40625 166.269531 74.4375 165.707031 75.421875 165.992188 C 76.40625 166.277344 76.96875 167.3125 76.683594 168.296875 C 75.398438 172.71875 77.945312 177.367188 82.363281 178.65625 C 85.394531 179.542969 88.625 178.660156 90.785156 176.351562 C 91.488281 175.605469 92.664062 175.570312 93.410156 176.273438 C 94.15625 176.976562 94.195312 178.152344 93.492188 178.902344 Z M 150.808594 155.453125 C 148.058594 155.453125 145.378906 154.765625 142.953125 153.464844 C 142.035156 154.613281 140.917969 155.601562 139.628906 156.390625 C 137.585938 157.636719 135.300781 158.257812 133.015625 158.257812 C 130.707031 158.257812 128.398438 157.625 126.34375 156.355469 C 125.46875 155.816406 125.199219 154.671875 125.734375 153.796875 C 126.273438 152.925781 127.417969 152.652344 128.289062 153.191406 C 131.1875 154.976562 134.792969 154.988281 137.695312 153.214844 C 139.746094 151.964844 141.1875 149.988281 141.753906 147.652344 C 142.320312 145.316406 141.945312 142.898438 140.691406 140.84375 C 140.160156 139.96875 140.433594 138.824219 141.3125 138.289062 C 142.1875 137.753906 143.328125 138.03125 143.863281 138.910156 C 145.628906 141.808594 146.160156 145.226562 145.363281 148.527344 C 145.21875 149.125 145.03125 149.703125 144.808594 150.261719 C 147.273438 151.546875 150.074219 152.011719 152.871094 151.574219 C 156.335938 151.03125 159.390625 149.179688 161.445312 146.335938 C 165.242188 141.085938 164.75 132.648438 158.574219 127.984375 L 158.59375 127.957031 L 158.589844 127.953125 C 159.128906 126.226562 159.421875 124.390625 159.421875 122.488281 C 159.421875 116.242188 156.296875 110.726562 151.527344 107.421875 C 152.398438 104.695312 151.527344 98.929688 147.679688 95.964844 C 145.390625 94.207031 142.570312 93.191406 139.621094 93.191406 C 133.25 93.191406 127.804688 97.851562 126.707031 104.011719 C 129.839844 105.710938 132.199219 108.40625 133.558594 111.535156 C 141.566406 111.8125 148.183594 118.195312 148.605469 126.347656 C 148.660156 127.371094 147.871094 128.246094 146.847656 128.300781 C 146.816406 128.300781 146.785156 128.304688 146.75 128.304688 C 145.769531 128.304688 144.949219 127.535156 144.898438 126.539062 C 144.597656 120.757812 140.207031 116.136719 134.679688 115.355469 C 135.113281 118.058594 134.855469 120.894531 133.777344 123.589844 C 133.484375 124.316406 132.789062 124.757812 132.050781 124.757812 C 131.820312 124.757812 131.589844 124.710938 131.363281 124.621094 C 130.410156 124.238281 129.949219 123.15625 130.328125 122.203125 C 132.71875 116.242188 129.863281 109.335938 123.96875 106.808594 C 123.234375 106.492188 122.785156 105.746094 122.847656 104.953125 C 123.441406 97.515625 128.9375 91.460938 135.980469 89.882812 C 133.871094 84.710938 128.8125 81.058594 122.886719 81.058594 C 115.890625 81.058594 110.332031 86.09375 108.894531 92.71875 C 108.734375 93.460938 108.644531 94.34375 108.644531 95.15625 L 108.644531 183.640625 C 108.644531 184.808594 108.910156 186.035156 109.253906 187.046875 C 111.234375 192.84375 116.398438 197.085938 122.832031 197.085938 C 127.898438 197.085938 132.339844 194.417969 134.835938 190.414062 C 143.851562 189.597656 150.984375 182.238281 151.445312 173.113281 C 156.261719 169.8125 159.421875 164.269531 159.421875 157.988281 C 159.421875 156.414062 159.222656 154.886719 158.847656 153.429688 C 157.1875 154.328125 155.371094 154.945312 153.449219 155.246094 C 152.566406 155.386719 151.683594 155.453125 150.808594 155.453125 Z M 138.675781 176.445312 C 137.128906 179.273438 134.570312 181.328125 131.476562 182.230469 C 130.351562 182.558594 129.210938 182.714844 128.078125 182.714844 C 124.804688 182.714844 121.632812 181.378906 119.308594 178.902344 C 118.605469 178.15625 118.644531 176.976562 119.390625 176.277344 C 120.136719 175.570312 121.3125 175.609375 122.015625 176.355469 C 124.179688 178.660156 127.40625 179.542969 130.4375 178.660156 C 132.578125 178.035156 134.347656 176.613281 135.421875 174.65625 C 136.492188 172.699219 136.742188 170.441406 136.117188 168.300781 C 135.832031 167.3125 136.398438 166.28125 137.382812 165.996094 C 138.367188 165.707031 139.394531 166.273438 139.683594 167.257812 C 140.585938 170.355469 140.226562 173.617188 138.675781 176.445312 Z M 138.675781 176.445312 " fill-opacity="1" fill-rule="nonzero"/></g><g clip-path="url(#5987de194c)"><g transform="matrix(1, 0, 0, 1, 107, 68)"><g clip-path="url(#242408566e)"><g clip-path="url(#87b7999d9d)"><path fill="#000000" d="M 15.972656 0.0898438 C 21.917969 0.0898438 26.996094 3.765625 29.089844 8.964844 C 22.171875 10.636719 16.800781 16.632812 16.214844 23.980469 C 16.152344 24.777344 16.601562 25.523438 17.335938 25.835938 C 23.230469 28.363281 26.085938 35.273438 23.695312 41.234375 C 23.316406 42.1875 23.777344 43.269531 24.730469 43.652344 C 24.957031 43.742188 25.191406 43.785156 25.417969 43.785156 C 26.15625 43.785156 26.851562 43.34375 27.144531 42.617188 C 28.222656 39.925781 28.480469 37.085938 28.046875 34.386719 C 33.566406 35.167969 37.964844 39.785156 38.265625 45.570312 C 38.316406 46.5625 39.136719 47.332031 40.117188 47.332031 C 40.152344 47.332031 40.183594 47.332031 40.214844 47.328125 C 41.238281 47.277344 42.027344 46.402344 41.972656 45.375 C 41.550781 37.222656 34.929688 30.839844 26.925781 30.5625 C 25.566406 27.4375 23.207031 24.742188 20.074219 23.039062 C 21.171875 16.878906 26.617188 12.21875 32.988281 12.21875 C 35.992188 12.21875 38.890625 13.242188 41.175781 15.101562 C 45.101562 18.292969 46.09375 23.722656 44.921875 26.449219 C 49.6875 29.753906 52.816406 35.269531 52.816406 41.515625 C 52.816406 43.417969 52.523438 45.253906 51.984375 46.984375 L 51.988281 46.984375 L 51.96875 47.011719 C 57.5625 51.097656 59.128906 59.273438 55.347656 64.605469 C 53.355469 67.414062 49.726562 70.0625 46.265625 70.601562 C 43.46875 71.042969 40.667969 70.578125 38.203125 69.292969 C 38.425781 68.730469 38.609375 68.152344 38.753906 67.558594 C 39.554688 64.253906 39.023438 60.839844 37.253906 57.9375 C 36.722656 57.0625 35.578125 56.785156 34.703125 57.320312 C 33.828125 57.851562 33.550781 58.996094 34.085938 59.875 C 35.335938 61.925781 35.710938 64.34375 35.144531 66.679688 C 34.582031 69.015625 33.140625 70.992188 31.089844 72.246094 C 28.183594 74.019531 24.578125 74.007812 21.683594 72.222656 C 20.808594 71.683594 19.664062 71.957031 19.128906 72.828125 C 18.589844 73.703125 18.859375 74.847656 19.734375 75.386719 C 21.792969 76.652344 24.097656 77.289062 26.40625 77.289062 C 28.691406 77.289062 30.980469 76.664062 33.019531 75.417969 C 34.3125 74.632812 35.429688 73.640625 36.34375 72.496094 C 38.773438 73.796875 41.453125 74.484375 44.199219 74.484375 C 45.078125 74.484375 45.957031 74.417969 46.839844 74.277344 C 48.757812 73.976562 50.578125 73.359375 52.242188 72.460938 C 52.613281 73.917969 52.816406 75.445312 52.816406 77.015625 C 52.816406 83.300781 49.652344 88.84375 44.835938 92.144531 C 44.371094 101.355469 37.105469 108.769531 27.964844 109.464844 C 25.464844 113.460938 21.03125 116.117188 15.972656 116.117188 C 9.363281 116.117188 4.011719 111.648438 2.261719 105.566406 C 2.007812 104.695312 1.824219 103.648438 1.824219 102.671875 C 1.824219 102.671875 1.832031 13.851562 1.839844 13.6875 C 2.136719 6.125 8.347656 0.0898438 15.972656 0.0898438 Z M 12.699219 97.933594 C 15.023438 100.40625 18.195312 101.746094 21.472656 101.746094 C 22.601562 101.746094 23.746094 101.585938 24.867188 101.257812 C 27.960938 100.355469 30.519531 98.300781 32.070312 95.472656 C 33.617188 92.644531 33.976562 89.382812 33.074219 86.285156 C 32.789062 85.300781 31.757812 84.738281 30.773438 85.019531 C 29.789062 85.308594 29.222656 86.339844 29.507812 87.324219 C 30.796875 91.75 28.246094 96.398438 23.828125 97.6875 C 20.796875 98.570312 17.570312 97.6875 15.40625 95.382812 C 14.703125 94.632812 13.527344 94.597656 12.78125 95.300781 C 12.035156 96.007812 12 97.183594 12.699219 97.933594 Z M -44.617188 74.484375 C -41.867188 74.484375 -39.1875 73.796875 -36.757812 72.496094 C -35.84375 73.640625 -34.726562 74.632812 -33.4375 75.417969 C -31.394531 76.664062 -29.109375 77.289062 -26.820312 77.289062 C -24.511719 77.289062 -22.207031 76.652344 -20.148438 75.386719 C -19.277344 74.847656 -19.003906 73.703125 -19.542969 72.828125 C -20.082031 71.953125 -21.226562 71.679688 -22.097656 72.222656 C -24.996094 74.007812 -28.597656 74.019531 -31.503906 72.246094 C -33.554688 70.992188 -34.996094 69.015625 -35.5625 66.679688 C -36.128906 64.34375 -35.75 61.925781 -34.5 59.875 C -33.964844 58.996094 -34.242188 57.851562 -35.117188 57.320312 C -35.996094 56.785156 -37.136719 57.0625 -37.671875 57.9375 C -39.4375 60.839844 -39.96875 64.253906 -39.171875 67.558594 C -39.027344 68.152344 -38.839844 68.730469 -38.617188 69.289062 C -41.082031 70.578125 -43.882812 71.042969 -46.679688 70.605469 C -50.144531 70.0625 -53.199219 68.210938 -55.253906 65.367188 C -59.050781 60.113281 -58.558594 51.679688 -52.382812 47.015625 L -52.402344 46.988281 L -52.394531 46.984375 C -52.933594 45.253906 -53.230469 43.421875 -53.230469 41.515625 C -53.230469 35.269531 -50.105469 29.757812 -45.335938 26.449219 C -46.207031 23.726562 -45.335938 17.957031 -41.484375 14.996094 C -39.195312 13.234375 -36.378906 12.222656 -33.429688 12.222656 C -27.058594 12.222656 -21.613281 16.882812 -20.515625 23.042969 C -23.648438 24.742188 -26.007812 27.4375 -27.367188 30.566406 C -35.371094 30.839844 -41.992188 37.226562 -42.414062 45.378906 C -42.46875 46.402344 -41.679688 47.277344 -40.65625 47.332031 C -40.625 47.332031 -40.589844 47.332031 -40.558594 47.332031 C -39.578125 47.332031 -38.757812 46.5625 -38.707031 45.570312 C -38.40625 39.785156 -34.015625 35.164062 -28.488281 34.386719 C -28.921875 37.085938 -28.660156 39.925781 -27.582031 42.617188 C -27.292969 43.34375 -26.597656 43.785156 -25.859375 43.785156 C -25.628906 43.785156 -25.394531 43.742188 -25.167969 43.652344 C -24.21875 43.269531 -23.753906 42.1875 -24.136719 41.234375 C -26.523438 35.273438 -23.671875 28.367188 -17.777344 25.835938 C -17.042969 25.523438 -16.59375 24.777344 -16.65625 23.980469 C -17.25 16.542969 -22.746094 10.492188 -29.785156 8.910156 C -27.679688 3.738281 -22.617188 0.0898438 -16.695312 0.0898438 C -9.699219 0.0898438 -4.140625 5.125 -2.703125 11.75 C -2.542969 12.492188 -2.453125 13.375 -2.453125 14.183594 L -2.453125 102.667969 C -2.453125 103.839844 -2.71875 105.0625 -3.0625 106.074219 C -5.039062 111.875 -10.207031 116.117188 -16.636719 116.117188 C -21.703125 116.117188 -26.144531 113.449219 -28.644531 109.441406 C -37.660156 108.628906 -44.792969 101.269531 -45.25 92.144531 C -50.066406 88.84375 -53.230469 83.300781 -53.230469 77.015625 C -53.230469 75.441406 -53.03125 73.917969 -52.65625 72.460938 C -50.996094 73.359375 -49.175781 73.976562 -47.257812 74.277344 C -46.371094 74.414062 -45.492188 74.484375 -44.617188 74.484375 Z M -32.484375 95.472656 C -30.933594 98.300781 -28.378906 100.355469 -25.285156 101.257812 C -24.160156 101.585938 -23.015625 101.746094 -21.886719 101.746094 C -18.613281 101.746094 -15.441406 100.40625 -13.117188 97.933594 C -12.414062 97.183594 -12.449219 96.007812 -13.199219 95.304688 C -13.945312 94.601562 -15.121094 94.636719 -15.820312 95.386719 C -17.988281 97.691406 -21.214844 98.574219 -24.246094 97.691406 C -26.386719 97.066406 -28.15625 95.644531 -29.230469 93.6875 C -30.300781 91.730469 -30.546875 89.472656 -29.925781 87.328125 C -29.636719 86.34375 -30.203125 85.3125 -31.1875 85.023438 C -32.171875 84.738281 -33.203125 85.304688 -33.492188 86.289062 C -34.394531 89.382812 -34.035156 92.644531 -32.484375 95.472656 Z M -32.484375 95.472656 " fill-opacity="1" fill-rule="nonzero"/></g></g></g></g><g transform="matrix(1, 0, 0, 1, 169, 70)"><g clip-path="url(#22a71864e6)"><g fill="#000000" fill-opacity="1"><g transform="translate(0.442596, 45.616008)"><g><path d="M 24 -7.1875 C 25.789062 -7.1875 27.472656 -7.535156 29.046875 -8.234375 C 30.628906 -8.929688 32.019531 -9.878906 33.21875 -11.078125 C 33.488281 -11.273438 33.765625 -11.273438 34.046875 -11.078125 L 38.84375 -6.21875 C 38.957031 -6.144531 39.015625 -6.023438 39.015625 -5.859375 C 39.015625 -5.703125 38.957031 -5.582031 38.84375 -5.5 C 37 -3.625 34.800781 -2.140625 32.25 -1.046875 C 29.695312 0.046875 26.945312 0.59375 24 0.59375 C 21.082031 0.59375 18.347656 0.0976562 15.796875 -0.890625 C 13.242188 -1.890625 11 -3.335938 9.0625 -5.234375 C 7.125 -7.128906 5.609375 -9.398438 4.515625 -12.046875 C 3.421875 -14.703125 2.875 -17.671875 2.875 -20.953125 C 2.875 -25.171875 3.78125 -28.894531 5.59375 -32.125 C 7.40625 -35.363281 9.894531 -37.898438 13.0625 -39.734375 C 16.238281 -41.566406 19.882812 -42.484375 24 -42.484375 C 26.945312 -42.484375 29.695312 -41.9375 32.25 -40.84375 C 34.800781 -39.75 37 -38.242188 38.84375 -36.328125 C 38.957031 -36.242188 39.015625 -36.125 39.015625 -35.96875 C 39.015625 -35.8125 38.957031 -35.691406 38.84375 -35.609375 L 34.046875 -30.8125 C 33.765625 -30.613281 33.488281 -30.613281 33.21875 -30.8125 C 32.019531 -32.007812 30.628906 -32.957031 29.046875 -33.65625 C 27.472656 -34.351562 25.789062 -34.703125 24 -34.703125 C 21.320312 -34.703125 19.003906 -34.101562 17.046875 -32.90625 C 15.097656 -31.71875 13.601562 -30.09375 12.5625 -28.03125 C 11.53125 -25.976562 11.015625 -23.617188 11.015625 -20.953125 C 11.015625 -18.117188 11.59375 -15.671875 12.75 -13.609375 C 13.90625 -11.554688 15.46875 -9.972656 17.4375 -8.859375 C 19.414062 -7.742188 21.601562 -7.1875 24 -7.1875 Z M 24 -7.1875 "/></g></g></g><g fill="#000000" fill-opacity="1"><g transform="translate(41.964595, 45.616008)"><g><path d="M 23.515625 -42.484375 C 26.953125 -42.484375 29.957031 -41.875 32.53125 -40.65625 C 35.101562 -39.445312 37.253906 -37.8125 38.984375 -35.75 C 40.722656 -33.695312 42.019531 -31.394531 42.875 -28.84375 C 43.738281 -26.289062 44.171875 -23.675781 44.171875 -21 C 44.171875 -18.332031 43.738281 -15.71875 42.875 -13.15625 C 42.019531 -10.601562 40.722656 -8.289062 38.984375 -6.21875 C 37.253906 -4.144531 35.101562 -2.5 32.53125 -1.28125 C 29.957031 -0.0703125 26.953125 0.53125 23.515625 0.53125 C 20.046875 0.53125 17.003906 -0.0703125 14.390625 -1.28125 C 11.773438 -2.5 9.609375 -4.144531 7.890625 -6.21875 C 6.179688 -8.289062 4.894531 -10.601562 4.03125 -13.15625 C 3.175781 -15.71875 2.75 -18.332031 2.75 -21 C 2.75 -23.675781 3.175781 -26.289062 4.03125 -28.84375 C 4.894531 -31.394531 6.179688 -33.695312 7.890625 -35.75 C 9.609375 -37.8125 11.773438 -39.445312 14.390625 -40.65625 C 17.003906 -41.875 20.046875 -42.484375 23.515625 -42.484375 Z M 23.515625 -7 C 26.304688 -7 28.628906 -7.675781 30.484375 -9.03125 C 32.335938 -10.394531 33.734375 -12.132812 34.671875 -14.25 C 35.609375 -16.363281 36.078125 -18.578125 36.078125 -20.890625 C 36.078125 -23.242188 35.609375 -25.484375 34.671875 -27.609375 C 33.734375 -29.742188 32.335938 -31.488281 30.484375 -32.84375 C 28.628906 -34.207031 26.304688 -34.890625 23.515625 -34.890625 C 20.722656 -34.890625 18.390625 -34.207031 16.515625 -32.84375 C 14.640625 -31.488281 13.234375 -29.742188 12.296875 -27.609375 C 11.359375 -25.484375 10.890625 -23.242188 10.890625 -20.890625 C 10.890625 -18.578125 11.359375 -16.363281 12.296875 -14.25 C 13.234375 -12.132812 14.640625 -10.394531 16.515625 -9.03125 C 18.390625 -7.675781 20.722656 -7 23.515625 -7 Z M 23.515625 -7 "/></g></g></g><g fill="#000000" fill-opacity="1"><g transform="translate(89.6491, 45.616008)"><g><path d="M 41.171875 -24.234375 C 41.566406 -24.234375 41.765625 -24.078125 41.765625 -23.765625 L 41.765625 -0.359375 C 41.765625 -0.0351562 41.566406 0.125 41.171875 0.125 L 35.1875 0.125 C 34.832031 0.125 34.65625 -0.015625 34.65625 -0.296875 L 34.40625 -3.953125 C 32.894531 -2.429688 31.238281 -1.28125 29.4375 -0.5 C 27.644531 0.269531 25.59375 0.65625 23.28125 0.65625 C 19.53125 0.65625 16.128906 -0.1875 13.078125 -1.875 C 10.023438 -3.570312 7.597656 -6.023438 5.796875 -9.234375 C 4.003906 -12.453125 3.109375 -16.359375 3.109375 -20.953125 C 3.109375 -24.054688 3.65625 -26.925781 4.75 -29.5625 C 5.851562 -32.195312 7.359375 -34.476562 9.265625 -36.40625 C 11.179688 -38.34375 13.40625 -39.835938 15.9375 -40.890625 C 18.476562 -41.953125 21.203125 -42.484375 24.109375 -42.484375 C 27.066406 -42.484375 29.8125 -41.941406 32.34375 -40.859375 C 34.875 -39.785156 37.078125 -38.296875 38.953125 -36.390625 C 39.078125 -36.304688 39.140625 -36.179688 39.140625 -36.015625 C 39.140625 -35.859375 39.078125 -35.742188 38.953125 -35.671875 L 34.171875 -30.875 C 33.890625 -30.675781 33.609375 -30.675781 33.328125 -30.875 C 32.171875 -32.03125 30.796875 -32.96875 29.203125 -33.6875 C 27.609375 -34.40625 25.910156 -34.765625 24.109375 -34.765625 C 21.722656 -34.765625 19.539062 -34.21875 17.5625 -33.125 C 15.59375 -32.03125 14.023438 -30.453125 12.859375 -28.390625 C 11.703125 -26.335938 11.125 -23.859375 11.125 -20.953125 C 11.125 -17.710938 11.703125 -15.078125 12.859375 -13.046875 C 14.023438 -11.015625 15.59375 -9.519531 17.5625 -8.5625 C 19.539062 -7.601562 21.722656 -7.125 24.109375 -7.125 C 26.023438 -7.125 27.832031 -7.507812 29.53125 -8.28125 C 31.226562 -9.0625 32.695312 -10.128906 33.9375 -11.484375 L 33.9375 -17.234375 L 23.515625 -17.234375 C 23.117188 -17.234375 22.921875 -17.394531 22.921875 -17.71875 L 22.921875 -23.765625 C 22.921875 -24.078125 23.117188 -24.234375 23.515625 -24.234375 Z M 41.171875 -24.234375 "/></g></g></g><g fill="#000000" fill-opacity="1"><g transform="translate(135.89767, 45.616008)"><g><path d="M 39.3125 -0.484375 C 39.3125 -0.160156 39.113281 0 38.71875 0 L 31.890625 0 C 31.859375 0 31.78125 -0.0195312 31.65625 -0.0625 C 31.539062 -0.101562 31.460938 -0.140625 31.421875 -0.171875 L 12.265625 -28.0625 L 12.265625 -0.484375 C 12.265625 -0.160156 12.085938 0 11.734375 0 L 4.90625 0 C 4.550781 0 4.375 -0.160156 4.375 -0.484375 L 4.375 -41.46875 C 4.375 -41.789062 4.550781 -41.953125 4.90625 -41.953125 L 11.796875 -41.953125 C 12.023438 -41.953125 12.160156 -41.890625 12.203125 -41.765625 L 31.421875 -13.640625 L 31.421875 -41.46875 C 31.421875 -41.789062 31.617188 -41.953125 32.015625 -41.953125 L 38.71875 -41.953125 C 39.113281 -41.953125 39.3125 -41.789062 39.3125 -41.46875 Z M 39.3125 -0.484375 "/></g></g></g><g fill="#000000" fill-opacity="1"><g transform="translate(180.291516, 45.616008)"><g><path d="M 4.3125 -41.40625 C 4.3125 -41.726562 4.507812 -41.890625 4.90625 -41.890625 L 11.671875 -41.890625 C 12.066406 -41.890625 12.265625 -41.726562 12.265625 -41.40625 L 12.265625 -0.484375 C 12.265625 -0.160156 12.066406 0 11.671875 0 L 4.90625 0 C 4.507812 0 4.3125 -0.160156 4.3125 -0.484375 Z M 4.3125 -41.40625 "/></g></g></g><g fill="#000000" fill-opacity="1"><g transform="translate(197.043902, 45.616008)"><g><path d="M 12.203125 -33.8125 L 12.203125 -24.59375 L 28.546875 -24.59375 C 28.898438 -24.59375 29.078125 -24.429688 29.078125 -24.109375 L 29.078125 -17.421875 C 29.078125 -17.097656 28.898438 -16.9375 28.546875 -16.9375 L 12.203125 -16.9375 L 12.203125 -0.484375 C 12.203125 -0.160156 12.023438 0 11.671875 0 L 4.84375 0 C 4.488281 0 4.3125 -0.160156 4.3125 -0.484375 L 4.3125 -41.046875 C 4.3125 -41.367188 4.488281 -41.53125 4.84375 -41.53125 L 31.953125 -41.53125 C 32.359375 -41.53125 32.5625 -41.367188 32.5625 -41.046875 L 32.5625 -34.296875 C 32.5625 -33.972656 32.359375 -33.8125 31.953125 -33.8125 Z M 12.203125 -33.8125 "/></g></g></g><g fill="#000000" fill-opacity="1"><g transform="translate(231.74529, 45.616008)"><g><path d="M 38.1875 -41.890625 C 38.457031 -41.890625 38.644531 -41.804688 38.75 -41.640625 C 38.851562 -41.484375 38.820312 -41.304688 38.65625 -41.109375 L 23.515625 -19.5625 L 23.515625 -0.484375 C 23.515625 -0.160156 23.316406 0 22.921875 0 L 16.15625 0 C 15.757812 0 15.5625 -0.160156 15.5625 -0.484375 L 15.5625 -19.5625 C 13.082031 -23.113281 10.566406 -26.710938 8.015625 -30.359375 C 5.460938 -34.015625 2.929688 -37.597656 0.421875 -41.109375 C 0.253906 -41.304688 0.222656 -41.484375 0.328125 -41.640625 C 0.429688 -41.804688 0.617188 -41.890625 0.890625 -41.890625 L 9.21875 -41.890625 C 9.257812 -41.890625 9.328125 -41.878906 9.421875 -41.859375 C 9.523438 -41.835938 9.597656 -41.789062 9.640625 -41.71875 L 19.5625 -27.53125 L 29.4375 -41.71875 C 29.476562 -41.789062 29.546875 -41.835938 29.640625 -41.859375 C 29.742188 -41.878906 29.816406 -41.890625 29.859375 -41.890625 Z M 38.1875 -41.890625 "/></g></g></g></g></g><g fill="#000000" fill-opacity="1"><g transform="translate(169.416617, 164.614799)"><g><path d="M 46.5 -0.453125 C 46.5 -0.148438 46.3125 0 45.9375 0 L 39.59375 0 C 39.21875 0 39.03125 -0.148438 39.03125 -0.453125 L 39.03125 -22.578125 L 29.140625 -1.796875 C 29.066406 -1.609375 28.898438 -1.515625 28.640625 -1.515625 L 22.625 -1.515625 C 22.4375 -1.515625 22.289062 -1.609375 22.1875 -1.796875 L 11.5625 -23.03125 L 11.5625 -0.453125 C 11.5625 -0.148438 11.375 0 11 0 L 4.65625 0 C 4.28125 0 4.09375 -0.148438 4.09375 -0.453125 L 4.09375 -38.859375 C 4.09375 -39.160156 4.28125 -39.3125 4.65625 -39.3125 L 11.125 -39.3125 C 11.382812 -39.3125 11.550781 -39.21875 11.625 -39.03125 L 25.609375 -10.109375 L 38.96875 -39.03125 C 39.082031 -39.21875 39.253906 -39.3125 39.484375 -39.3125 L 45.9375 -39.3125 C 46.3125 -39.3125 46.5 -39.160156 46.5 -38.859375 Z M 46.5 -0.453125 "/></g></g></g><g fill="#000000" fill-opacity="1"><g transform="translate(220.843689, 164.614799)"><g><path d="M 4.046875 -38.859375 C 4.046875 -39.160156 4.234375 -39.3125 4.609375 -39.3125 L 10.953125 -39.3125 C 11.328125 -39.3125 11.515625 -39.160156 11.515625 -38.859375 L 11.515625 -0.453125 C 11.515625 -0.148438 11.328125 0 10.953125 0 L 4.609375 0 C 4.234375 0 4.046875 -0.148438 4.046875 -0.453125 Z M 4.046875 -38.859375 "/></g></g></g><g fill="#000000" fill-opacity="1"><g transform="translate(236.563756, 164.614799)"><g><path d="M 36.890625 -0.453125 C 36.890625 -0.148438 36.703125 0 36.328125 0 L 29.9375 0 C 29.894531 0 29.816406 -0.015625 29.703125 -0.046875 C 29.585938 -0.0859375 29.515625 -0.128906 29.484375 -0.171875 L 11.515625 -26.34375 L 11.515625 -0.453125 C 11.515625 -0.148438 11.34375 0 11 0 L 4.609375 0 C 4.265625 0 4.09375 -0.148438 4.09375 -0.453125 L 4.09375 -38.921875 C 4.09375 -39.210938 4.265625 -39.359375 4.609375 -39.359375 L 11.0625 -39.359375 C 11.289062 -39.359375 11.421875 -39.304688 11.453125 -39.203125 L 29.484375 -12.796875 L 29.484375 -38.921875 C 29.484375 -39.210938 29.671875 -39.359375 30.046875 -39.359375 L 36.328125 -39.359375 C 36.703125 -39.359375 36.890625 -39.210938 36.890625 -38.921875 Z M 36.890625 -0.453125 "/></g></g></g><g fill="#000000" fill-opacity="1"><g transform="translate(278.221934, 164.614799)"><g/></g></g><g fill="#000000" fill-opacity="1"><g transform="translate(297.5913, 164.614799)"><g><path d="M 15.109375 0.5625 C 12.828125 0.488281 10.75 0.015625 8.875 -0.859375 C 7 -1.742188 5.5 -3.035156 4.375 -4.734375 C 3.257812 -6.441406 2.679688 -8.53125 2.640625 -11 C 2.640625 -11.269531 2.828125 -11.40625 3.203125 -11.40625 L 9.546875 -11.40625 C 9.921875 -11.40625 10.109375 -11.269531 10.109375 -11 C 10.179688 -9.539062 10.710938 -8.457031 11.703125 -7.75 C 12.703125 -7.039062 13.835938 -6.6875 15.109375 -6.6875 C 16.421875 -6.6875 17.582031 -7.078125 18.59375 -7.859375 C 19.601562 -8.648438 20.109375 -9.738281 20.109375 -11.125 C 20.109375 -12.09375 19.84375 -12.929688 19.3125 -13.640625 C 18.789062 -14.359375 18.144531 -14.921875 17.375 -15.328125 C 16.613281 -15.742188 15.859375 -15.96875 15.109375 -16 C 14.953125 -16 14.273438 -16.054688 13.078125 -16.171875 C 11.878906 -16.285156 10.570312 -16.660156 9.15625 -17.296875 C 7.09375 -18.265625 5.488281 -19.664062 4.34375 -21.5 C 3.207031 -23.34375 2.640625 -25.421875 2.640625 -27.734375 C 2.640625 -30.242188 3.226562 -32.394531 4.40625 -34.1875 C 5.582031 -35.988281 7.125 -37.375 9.03125 -38.34375 C 10.945312 -39.320312 12.972656 -39.8125 15.109375 -39.8125 C 17.390625 -39.8125 19.457031 -39.332031 21.3125 -38.375 C 23.164062 -37.425781 24.632812 -36.097656 25.71875 -34.390625 C 26.800781 -32.691406 27.363281 -30.71875 27.40625 -28.46875 C 27.40625 -28.164062 27.21875 -28.015625 26.84375 -28.015625 L 20.546875 -28.015625 C 20.171875 -28.015625 19.984375 -28.164062 19.984375 -28.46875 C 19.953125 -29.894531 19.457031 -30.941406 18.5 -31.609375 C 17.550781 -32.285156 16.421875 -32.625 15.109375 -32.625 C 13.722656 -32.625 12.539062 -32.222656 11.5625 -31.421875 C 10.59375 -30.617188 10.109375 -29.390625 10.109375 -27.734375 C 10.109375 -26.316406 10.625 -25.175781 11.65625 -24.3125 C 12.6875 -23.457031 13.835938 -23.03125 15.109375 -23.03125 C 15.253906 -23.03125 15.914062 -22.972656 17.09375 -22.859375 C 18.28125 -22.742188 19.566406 -22.367188 20.953125 -21.734375 C 23.078125 -20.753906 24.703125 -19.316406 25.828125 -17.421875 C 26.953125 -15.535156 27.515625 -13.4375 27.515625 -11.125 C 27.515625 -8.613281 26.925781 -6.488281 25.75 -4.75 C 24.570312 -3.007812 23.035156 -1.6875 21.140625 -0.78125 C 19.253906 0.113281 17.242188 0.5625 15.109375 0.5625 Z M 15.109375 0.5625 "/></g></g></g><g clip-path="url(#66b2b26421)"><g transform="matrix(1, 0, 0, 1, 278, 124)"><g clip-path="url(#c231d6dd16)"><g clip-path="url(#132c47d937)"><path fill="#000000" d="M 3.929688 1.089844 C 5.28125 0.855469 6.773438 1.492188 7.464844 2.703125 C 7.65625 3.015625 7.894531 3.464844 8.339844 3.363281 C 9.527344 3.164062 10.785156 3.296875 11.832031 3.933594 C 13.675781 4.96875 14.671875 7.46875 13.714844 9.433594 C 13.433594 9.910156 13.828125 10.566406 14.367188 10.582031 C 15.976562 10.835938 17.394531 12.222656 17.488281 13.890625 C 17.5625 14.613281 17.332031 15.3125 16.984375 15.9375 C 16.675781 16.375 16.90625 17.054688 17.429688 17.191406 C 19.082031 17.769531 20.53125 19.671875 19.863281 21.464844 C 19.644531 22.238281 19.027344 22.769531 18.503906 23.335938 C 18.160156 23.746094 18.515625 24.28125 18.585938 24.722656 C 17.773438 23.804688 16.652344 23.21875 15.449219 23.03125 C 14.585938 20.769531 11.953125 19.429688 9.632812 20.085938 C 8.898438 20.355469 8.96875 21.582031 9.753906 21.738281 C 10.476562 21.742188 11.21875 21.523438 11.917969 21.808594 C 13.042969 22.144531 13.777344 23.183594 14.082031 24.273438 C 14.257812 24.8125 14.910156 24.722656 15.351562 24.808594 C 16.734375 24.960938 17.828125 26.183594 18.015625 27.542969 C 17.410156 28.027344 17.625 28.875 17.28125 29.503906 C 16.65625 30.945312 15.042969 31.753906 13.519531 31.621094 C 13.046875 31.550781 12.601562 31.941406 12.617188 32.429688 C 12.777344 33.222656 13.1875 34 13.023438 34.835938 C 12.78125 36.523438 11.222656 37.855469 9.539062 37.886719 C 8.949219 37.832031 8.324219 38.023438 8.089844 38.617188 C 7.117188 40.503906 4.472656 41.027344 2.769531 39.847656 C 1.71875 39.179688 1.121094 37.910156 1.191406 36.667969 C 1.222656 33.796875 1.148438 30.921875 1.226562 28.054688 C 1.636719 27.292969 1.484375 26.367188 1.925781 25.613281 C 2.632812 24.238281 4.257812 23.480469 5.761719 23.664062 C 7.230469 23.808594 8.628906 24.769531 9.152344 26.183594 C 7.546875 26.703125 6.164062 28.238281 6.332031 30.015625 C 6.414062 30.808594 7.691406 30.933594 7.941406 30.195312 C 8.058594 29.636719 8.0625 29.003906 8.484375 28.570312 C 9.28125 27.585938 10.953125 27.621094 11.710938 28.636719 C 12.132812 29.097656 12.046875 29.769531 12.25 30.320312 C 12.617188 30.925781 13.726562 30.75 13.808594 30.011719 C 13.972656 28.214844 12.5625 26.566406 10.855469 26.203125 C 10.363281 24.226562 8.714844 22.652344 6.75 22.199219 C 4.78125 21.636719 2.585938 22.304688 1.183594 23.789062 C 1.199219 19.820312 1.195312 15.847656 1.1875 11.875 C 2.800781 13.222656 5.042969 13.882812 7.089844 13.269531 C 8.019531 12.957031 9.007812 12.578125 9.667969 11.8125 C 10.09375 11.167969 9.300781 10.292969 8.632812 10.59375 C 8.054688 10.945312 7.503906 11.367188 6.847656 11.5625 C 5.507812 12.042969 3.96875 11.824219 2.800781 11.015625 C 1.949219 10.441406 1.136719 9.570312 1.113281 8.480469 C 1.101562 7.066406 1.105469 5.65625 1.113281 4.246094 C 1.117188 2.683594 2.433594 1.332031 3.929688 1.089844 Z M 3.929688 1.089844 " fill-opacity="1" fill-rule="nonzero"/></g></g></g></g></svg>