<svg xmlns="http://www.w3.org/2000/svg" xmlns:xlink="http://www.w3.org/1999/xlink" width="650" zoomAndPan="magnify" viewBox="0 0 487.5 525.000007" height="700" preserveAspectRatio="xMidYMid meet" version="1.0"><defs><g/><clipPath id="03c7d16d6f"><path d="M 113 161.132812 L 147.546875 161.132812 L 147.546875 230 L 113 230 Z M 113 161.132812 " clip-rule="nonzero"/></clipPath><clipPath id="687eb6eb97"><path d="M 148.277344 153.402344 L 183.457031 153.402344 L 183.457031 222.273438 L 148.277344 222.273438 Z M 148.277344 153.402344 " clip-rule="nonzero"/></clipPath><clipPath id="b34103dc3b"><path d="M 0.277344 0.402344 L 35 0.402344 L 35 69.273438 L 0.277344 69.273438 Z M 0.277344 0.402344 " clip-rule="nonzero"/></clipPath><clipPath id="40bbf91d5e"><rect x="0" width="36" y="0" height="70"/></clipPath></defs><g fill="#5170ff" fill-opacity="1"><g transform="translate(48.871193, 223.703604)"><g><path d="M 33.703125 -8.875 C 36.359375 -8.875 38.875 -9.382812 41.25 -10.40625 C 43.625 -11.4375 45.671875 -12.8125 47.390625 -14.53125 L 54.203125 -7.640625 C 51.597656 -5.035156 48.535156 -2.972656 45.015625 -1.453125 C 41.503906 0.0664062 37.734375 0.828125 33.703125 0.828125 C 29.710938 0.828125 25.945312 0.140625 22.40625 -1.234375 C 18.863281 -2.617188 15.765625 -4.625 13.109375 -7.25 C 10.453125 -9.882812 8.363281 -13.039062 6.84375 -16.71875 C 5.320312 -20.40625 4.5625 -24.515625 4.5625 -29.046875 C 4.5625 -34.910156 5.804688 -40.082031 8.296875 -44.5625 C 10.785156 -49.050781 14.226562 -52.566406 18.625 -55.109375 C 23.03125 -57.660156 28.054688 -58.9375 33.703125 -58.9375 C 37.734375 -58.9375 41.503906 -58.171875 45.015625 -56.640625 C 48.535156 -55.117188 51.597656 -53.03125 54.203125 -50.375 L 47.390625 -43.578125 C 45.671875 -45.347656 43.625 -46.726562 41.25 -47.71875 C 38.875 -48.71875 36.359375 -49.21875 33.703125 -49.21875 C 29.710938 -49.21875 26.28125 -48.34375 23.40625 -46.59375 C 20.53125 -44.851562 18.316406 -42.472656 16.765625 -39.453125 C 15.210938 -36.441406 14.4375 -32.972656 14.4375 -29.046875 C 14.4375 -24.898438 15.296875 -21.316406 17.015625 -18.296875 C 18.734375 -15.285156 21.054688 -12.960938 23.984375 -11.328125 C 26.921875 -9.691406 30.160156 -8.875 33.703125 -8.875 Z M 33.703125 -8.875 "/></g></g></g><g fill="#5170ff" fill-opacity="1"><g transform="translate(112.441511, 223.703604)"><g/></g></g><g fill="#5170ff" fill-opacity="1"><g transform="translate(147.047758, 223.703604)"><g/></g></g><g fill="#5170ff" fill-opacity="1"><g transform="translate(181.661228, 223.703604)"><g><path d="M 58.09375 -33.03125 L 58.09375 0.078125 L 49.640625 0.078125 L 49.140625 -5.234375 C 46.753906 -3.015625 44.257812 -1.445312 41.65625 -0.53125 C 39.0625 0.375 36.050781 0.828125 32.625 0.828125 C 27.414062 0.828125 22.707031 -0.34375 18.5 -2.6875 C 14.300781 -5.039062 10.96875 -8.445312 8.5 -12.90625 C 6.039062 -17.363281 4.8125 -22.742188 4.8125 -29.046875 C 4.8125 -33.367188 5.554688 -37.351562 7.046875 -41 C 8.546875 -44.65625 10.632812 -47.820312 13.3125 -50.5 C 16 -53.1875 19.097656 -55.265625 22.609375 -56.734375 C 26.128906 -58.203125 29.878906 -58.9375 33.859375 -58.9375 C 37.898438 -58.9375 41.675781 -58.171875 45.1875 -56.640625 C 48.707031 -55.117188 51.765625 -53.03125 54.359375 -50.375 L 47.5625 -43.578125 C 45.84375 -45.347656 43.789062 -46.726562 41.40625 -47.71875 C 39.03125 -48.71875 36.515625 -49.21875 33.859375 -49.21875 C 30.316406 -49.21875 27.078125 -48.414062 24.140625 -46.8125 C 21.210938 -45.207031 18.878906 -42.910156 17.140625 -39.921875 C 15.398438 -36.929688 14.53125 -33.304688 14.53125 -29.046875 C 14.53125 -24.347656 15.398438 -20.503906 17.140625 -17.515625 C 18.878906 -14.523438 21.210938 -12.335938 24.140625 -10.953125 C 27.078125 -9.566406 30.316406 -8.875 33.859375 -8.875 C 36.796875 -8.875 39.507812 -9.453125 42 -10.609375 C 44.488281 -11.773438 46.617188 -13.382812 48.390625 -15.4375 L 48.390625 -24.484375 L 32.953125 -24.484375 L 32.953125 -33.03125 Z M 58.09375 -33.03125 "/></g></g></g><g fill="#5170ff" fill-opacity="1"><g transform="translate(251.785682, 223.703604)"><g><path d="M 54.953125 0 L 45.15625 0 L 16.265625 -41.328125 L 16.265625 0 L 6.5625 0 L 6.5625 -58.09375 L 16.34375 -58.09375 L 45.3125 -16.765625 L 45.3125 -58.09375 L 54.953125 -58.09375 Z M 54.953125 0 "/></g></g></g><g fill="#5170ff" fill-opacity="1"><g transform="translate(319.337563, 223.703604)"><g><path d="M 6.8125 0 L 6.8125 -58.09375 L 16.515625 -58.09375 L 16.515625 0 Z M 6.8125 0 "/></g></g></g><g fill="#5170ff" fill-opacity="1"><g transform="translate(348.549693, 223.703604)"><g><path d="M 16.265625 -48.390625 L 16.265625 -33.859375 L 40.421875 -33.859375 L 40.421875 -24.234375 L 16.265625 -24.234375 L 16.265625 0 L 6.5625 0 L 6.5625 -58.09375 L 45.3125 -58.09375 L 45.3125 -48.390625 Z M 16.265625 -48.390625 "/></g></g></g><g fill="#5170ff" fill-opacity="1"><g transform="translate(402.657772, 223.703604)"><g><path d="M 53.375 -58.09375 L 31.546875 -27.46875 L 31.546875 0 L 21.828125 0 L 21.828125 -27.46875 L 0 -58.09375 L 11.875 -58.09375 L 26.71875 -37.34375 L 41.5 -58.09375 Z M 53.375 -58.09375 "/></g></g></g><g clip-path="url(#03c7d16d6f)"><path fill="#000000" d="M 138.066406 161.15625 C 134.527344 161.15625 131.507812 163.335938 130.261719 166.425781 C 134.378906 167.414062 137.574219 170.976562 137.921875 175.335938 C 137.960938 175.808594 137.691406 176.25 137.253906 176.4375 C 133.746094 177.9375 132.046875 182.039062 133.46875 185.578125 C 133.695312 186.140625 133.421875 186.785156 132.855469 187.011719 C 132.71875 187.066406 132.582031 187.089844 132.445312 187.089844 C 132.007812 187.089844 131.59375 186.828125 131.417969 186.398438 C 130.777344 184.800781 130.621094 183.117188 130.878906 181.511719 C 127.597656 181.976562 124.980469 184.71875 124.800781 188.148438 C 124.769531 188.738281 124.28125 189.195312 123.699219 189.195312 C 123.679688 189.195312 123.660156 189.195312 123.640625 189.195312 C 123.03125 189.164062 122.5625 188.644531 122.59375 188.035156 C 122.84375 183.195312 126.785156 179.40625 131.546875 179.242188 C 132.355469 177.386719 133.761719 175.785156 135.625 174.777344 C 134.972656 171.121094 131.730469 168.355469 127.941406 168.355469 C 126.152344 168.355469 124.429688 168.964844 123.070312 170.066406 C 120.734375 171.957031 120.144531 175.183594 120.839844 176.800781 C 118.003906 178.761719 116.144531 182.035156 116.144531 185.742188 C 116.144531 186.875 116.316406 187.964844 116.636719 188.988281 L 116.648438 189.003906 C 113.316406 191.429688 112.386719 196.285156 114.636719 199.449219 C 115.820312 201.117188 117.980469 202.6875 120.039062 203.007812 C 121.707031 203.269531 123.371094 202.992188 124.839844 202.230469 C 124.707031 201.898438 124.59375 201.554688 124.507812 201.199219 C 124.035156 199.242188 124.351562 197.214844 125.402344 195.492188 C 125.71875 194.972656 126.398438 194.808594 126.921875 195.125 C 127.441406 195.441406 127.605469 196.121094 127.289062 196.640625 C 126.542969 197.859375 126.320312 199.292969 126.65625 200.679688 C 126.992188 202.066406 127.851562 203.242188 129.070312 203.984375 C 130.800781 205.035156 132.945312 205.03125 134.667969 203.96875 C 135.1875 203.648438 135.867188 203.8125 136.1875 204.328125 C 136.507812 204.847656 136.347656 205.527344 135.828125 205.847656 C 134.601562 206.601562 133.230469 206.976562 131.855469 206.976562 C 130.496094 206.976562 129.136719 206.605469 127.921875 205.867188 C 127.152344 205.402344 126.488281 204.8125 125.945312 204.132812 C 124.5 204.902344 122.90625 205.3125 121.269531 205.3125 C 120.746094 205.3125 120.222656 205.273438 119.699219 205.191406 C 118.554688 205.011719 117.472656 204.644531 116.484375 204.113281 C 116.261719 204.976562 116.144531 205.882812 116.144531 206.816406 C 116.144531 210.546875 118.023438 213.835938 120.890625 215.792969 C 121.167969 221.261719 125.492188 225.664062 130.929688 226.074219 C 132.417969 228.445312 135.054688 230.023438 138.066406 230.023438 C 142 230.023438 145.183594 227.371094 146.226562 223.761719 C 146.375 223.246094 146.484375 222.625 146.484375 222.042969 C 146.484375 222.042969 146.480469 169.324219 146.476562 169.226562 C 146.296875 164.738281 142.601562 161.15625 138.066406 161.15625 Z M 140.011719 219.230469 C 138.628906 220.699219 136.742188 221.492188 134.792969 221.492188 C 134.121094 221.492188 133.441406 221.398438 132.773438 221.203125 C 130.933594 220.667969 129.410156 219.449219 128.488281 217.769531 C 127.566406 216.09375 127.351562 214.15625 127.890625 212.316406 C 128.058594 211.730469 128.675781 211.398438 129.257812 211.566406 C 129.84375 211.738281 130.183594 212.351562 130.011719 212.933594 C 129.246094 215.558594 130.761719 218.320312 133.390625 219.082031 C 135.195312 219.609375 137.117188 219.085938 138.402344 217.714844 C 138.820312 217.273438 139.519531 217.25 139.964844 217.667969 C 140.410156 218.085938 140.429688 218.785156 140.011719 219.230469 Z M 174.117188 205.3125 C 172.480469 205.3125 170.886719 204.902344 169.441406 204.132812 C 168.898438 204.8125 168.234375 205.402344 167.464844 205.867188 C 166.25 206.605469 164.890625 206.976562 163.53125 206.976562 C 162.15625 206.976562 160.785156 206.601562 159.558594 205.847656 C 159.039062 205.527344 158.878906 204.847656 159.199219 204.328125 C 159.519531 203.8125 160.199219 203.648438 160.71875 203.96875 C 162.441406 205.03125 164.585938 205.035156 166.316406 203.984375 C 167.535156 203.242188 168.394531 202.066406 168.730469 200.679688 C 169.066406 199.292969 168.84375 197.859375 168.097656 196.640625 C 167.78125 196.121094 167.945312 195.441406 168.464844 195.125 C 168.988281 194.804688 169.667969 194.972656 169.984375 195.492188 C 171.035156 197.214844 171.351562 199.242188 170.878906 201.199219 C 170.792969 201.554688 170.679688 201.898438 170.546875 202.230469 C 172.015625 202.992188 173.679688 203.269531 175.347656 203.007812 C 177.40625 202.6875 179.222656 201.585938 180.445312 199.902344 C 182.707031 196.785156 182.414062 191.777344 178.738281 189.007812 L 178.75 188.992188 L 178.746094 188.988281 C 179.066406 187.964844 179.242188 186.875 179.242188 185.742188 C 179.242188 182.035156 177.382812 178.765625 174.546875 176.800781 C 175.0625 175.183594 174.546875 171.761719 172.253906 170.003906 C 170.894531 168.957031 169.214844 168.355469 167.460938 168.355469 C 163.671875 168.355469 160.429688 171.121094 159.777344 174.777344 C 161.640625 175.789062 163.046875 177.386719 163.855469 179.242188 C 168.617188 179.40625 172.558594 183.199219 172.808594 188.035156 C 172.839844 188.644531 172.371094 189.164062 171.761719 189.195312 C 171.742188 189.195312 171.722656 189.195312 171.703125 189.195312 C 171.121094 189.195312 170.632812 188.738281 170.601562 188.148438 C 170.421875 184.71875 167.808594 181.972656 164.519531 181.511719 C 164.78125 183.113281 164.625 184.800781 163.984375 186.398438 C 163.808594 186.828125 163.394531 187.089844 162.957031 187.089844 C 162.820312 187.089844 162.679688 187.066406 162.546875 187.011719 C 161.980469 186.785156 161.703125 186.140625 161.933594 185.578125 C 163.351562 182.039062 161.65625 177.9375 158.148438 176.4375 C 157.710938 176.25 157.441406 175.808594 157.480469 175.335938 C 157.832031 170.921875 161.105469 167.328125 165.292969 166.390625 C 164.039062 163.320312 161.027344 161.15625 157.503906 161.15625 C 153.339844 161.15625 150.035156 164.144531 149.179688 168.074219 C 149.082031 168.515625 149.027344 169.039062 149.027344 169.519531 L 149.027344 222.042969 C 149.027344 222.734375 149.1875 223.460938 149.390625 224.0625 C 150.570312 227.503906 153.644531 230.023438 157.46875 230.023438 C 160.484375 230.023438 163.128906 228.441406 164.613281 226.0625 C 169.980469 225.578125 174.222656 221.210938 174.496094 215.792969 C 177.363281 213.835938 179.246094 210.546875 179.246094 206.816406 C 179.246094 205.882812 179.125 204.976562 178.902344 204.109375 C 177.914062 204.644531 176.832031 205.011719 175.6875 205.1875 C 175.164062 205.269531 174.640625 205.3125 174.117188 205.3125 Z M 166.898438 217.769531 C 165.976562 219.449219 164.457031 220.667969 162.613281 221.203125 C 161.945312 221.398438 161.265625 221.492188 160.59375 221.492188 C 158.644531 221.492188 156.757812 220.699219 155.375 219.230469 C 154.957031 218.785156 154.976562 218.085938 155.421875 217.671875 C 155.867188 217.253906 156.566406 217.273438 156.984375 217.71875 C 158.273438 219.085938 160.191406 219.609375 161.996094 219.085938 C 163.269531 218.714844 164.324219 217.871094 164.960938 216.710938 C 165.601562 215.546875 165.746094 214.207031 165.375 212.9375 C 165.207031 212.351562 165.542969 211.738281 166.128906 211.570312 C 166.714844 211.398438 167.328125 211.734375 167.496094 212.320312 C 168.035156 214.15625 167.820312 216.09375 166.898438 217.769531 Z M 166.898438 217.769531 " fill-opacity="1" fill-rule="nonzero"/></g><g clip-path="url(#687eb6eb97)"><g transform="matrix(1, 0, 0, 1, 148, 153)"><g clip-path="url(#40bbf91d5e)"><g clip-path="url(#b34103dc3b)"><path fill="#000000" d="M 9.664062 0.425781 C 13.203125 0.425781 16.222656 2.609375 17.46875 5.695312 C 13.351562 6.6875 10.15625 10.246094 9.808594 14.605469 C 9.769531 15.078125 10.039062 15.523438 10.476562 15.707031 C 13.984375 17.210938 15.683594 21.308594 14.261719 24.847656 C 14.035156 25.414062 14.308594 26.054688 14.875 26.28125 C 15.011719 26.335938 15.148438 26.363281 15.285156 26.363281 C 15.722656 26.363281 16.140625 26.101562 16.3125 25.667969 C 16.953125 24.070312 17.109375 22.386719 16.851562 20.785156 C 20.132812 21.25 22.75 23.988281 22.929688 27.421875 C 22.960938 28.007812 23.449219 28.46875 24.03125 28.46875 C 24.050781 28.46875 24.070312 28.464844 24.089844 28.464844 C 24.699219 28.433594 25.167969 27.914062 25.136719 27.304688 C 24.886719 22.46875 20.945312 18.675781 16.183594 18.515625 C 15.375 16.65625 13.972656 15.058594 12.105469 14.046875 C 12.757812 10.394531 16 7.625 19.789062 7.625 C 21.578125 7.625 23.300781 8.234375 24.660156 9.335938 C 26.996094 11.230469 27.585938 14.453125 26.890625 16.070312 C 29.726562 18.035156 31.585938 21.304688 31.585938 25.015625 C 31.585938 26.144531 31.414062 27.234375 31.09375 28.261719 L 31.082031 28.277344 C 34.414062 30.703125 35.34375 35.554688 33.09375 38.71875 C 31.910156 40.386719 29.75 41.957031 27.691406 42.28125 C 26.023438 42.539062 24.359375 42.265625 22.890625 41.5 C 23.023438 41.167969 23.136719 40.824219 23.222656 40.472656 C 23.695312 38.511719 23.378906 36.484375 22.328125 34.761719 C 22.011719 34.242188 21.332031 34.078125 20.808594 34.394531 C 20.289062 34.710938 20.125 35.390625 20.441406 35.910156 C 21.1875 37.128906 21.410156 38.5625 21.074219 39.953125 C 20.738281 41.339844 19.878906 42.511719 18.660156 43.253906 C 16.933594 44.304688 14.785156 44.300781 13.0625 43.242188 C 12.542969 42.921875 11.863281 43.082031 11.542969 43.601562 C 11.222656 44.117188 11.382812 44.800781 11.902344 45.117188 C 13.128906 45.871094 14.5 46.246094 15.875 46.246094 C 17.234375 46.246094 18.59375 45.878906 19.808594 45.136719 C 20.578125 44.671875 21.242188 44.082031 21.785156 43.402344 C 23.230469 44.175781 24.824219 44.582031 26.460938 44.582031 C 26.984375 44.582031 27.507812 44.542969 28.03125 44.460938 C 29.175781 44.28125 30.257812 43.914062 31.246094 43.382812 C 31.46875 44.246094 31.585938 45.152344 31.585938 46.085938 C 31.585938 49.816406 29.707031 53.105469 26.839844 55.066406 C 26.5625 60.535156 22.238281 64.933594 16.800781 65.347656 C 15.3125 67.71875 12.675781 69.296875 9.664062 69.296875 C 5.730469 69.296875 2.546875 66.640625 1.507812 63.03125 C 1.355469 62.515625 1.246094 61.894531 1.246094 61.3125 C 1.246094 61.3125 1.25 8.59375 1.257812 8.496094 C 1.433594 4.007812 5.128906 0.425781 9.664062 0.425781 Z M 7.71875 58.5 C 9.101562 59.96875 10.988281 60.765625 12.9375 60.765625 C 13.609375 60.765625 14.289062 60.667969 14.957031 60.472656 C 16.800781 59.9375 18.320312 58.71875 19.242188 57.042969 C 20.164062 55.363281 20.378906 53.425781 19.839844 51.589844 C 19.671875 51.003906 19.058594 50.667969 18.472656 50.835938 C 17.886719 51.007812 17.550781 51.621094 17.71875 52.207031 C 18.484375 54.832031 16.96875 57.589844 14.339844 58.355469 C 12.535156 58.878906 10.613281 58.355469 9.328125 56.988281 C 8.910156 56.542969 8.210938 56.523438 7.765625 56.941406 C 7.320312 57.359375 7.300781 58.054688 7.71875 58.5 Z M -26.386719 44.582031 C -24.75 44.582031 -23.15625 44.175781 -21.710938 43.402344 C -21.167969 44.082031 -20.503906 44.671875 -19.734375 45.136719 C -18.519531 45.878906 -17.160156 46.246094 -15.800781 46.246094 C -14.425781 46.246094 -13.050781 45.871094 -11.828125 45.117188 C -11.308594 44.800781 -11.148438 44.117188 -11.46875 43.601562 C -11.789062 43.082031 -12.46875 42.917969 -12.988281 43.242188 C -14.710938 44.300781 -16.855469 44.304688 -18.585938 43.253906 C -19.804688 42.511719 -20.664062 41.339844 -21 39.953125 C -21.335938 38.566406 -21.113281 37.128906 -20.367188 35.910156 C -20.050781 35.390625 -20.214844 34.710938 -20.734375 34.394531 C -21.257812 34.078125 -21.9375 34.242188 -22.253906 34.761719 C -23.304688 36.484375 -23.621094 38.511719 -23.148438 40.472656 C -23.0625 40.824219 -22.949219 41.167969 -22.816406 41.5 C -24.285156 42.265625 -25.949219 42.539062 -27.617188 42.28125 C -29.675781 41.957031 -31.492188 40.859375 -32.714844 39.171875 C -34.976562 36.054688 -34.683594 31.046875 -31.007812 28.277344 L -31.019531 28.261719 L -31.015625 28.261719 C -31.335938 27.234375 -31.511719 26.144531 -31.511719 25.015625 C -31.511719 21.308594 -29.652344 18.035156 -26.816406 16.074219 C -27.332031 14.457031 -26.816406 11.03125 -24.523438 9.273438 C -23.164062 8.230469 -21.484375 7.628906 -19.730469 7.628906 C -15.941406 7.628906 -12.699219 10.394531 -12.046875 14.050781 C -13.910156 15.058594 -15.316406 16.660156 -16.125 18.515625 C -20.886719 18.679688 -24.824219 22.46875 -25.078125 27.308594 C -25.109375 27.914062 -24.640625 28.433594 -24.03125 28.464844 C -24.011719 28.46875 -23.992188 28.46875 -23.972656 28.46875 C -23.386719 28.46875 -22.902344 28.011719 -22.871094 27.421875 C -22.691406 23.988281 -20.078125 21.246094 -16.789062 20.78125 C -17.050781 22.386719 -16.894531 24.070312 -16.253906 25.667969 C -16.078125 26.101562 -15.664062 26.363281 -15.226562 26.363281 C -15.089844 26.363281 -14.949219 26.335938 -14.816406 26.28125 C -14.25 26.054688 -13.972656 25.414062 -14.203125 24.847656 C -15.621094 21.308594 -13.925781 17.210938 -10.417969 15.710938 C -9.980469 15.523438 -9.710938 15.078125 -9.75 14.605469 C -10.101562 10.191406 -13.371094 6.601562 -17.5625 5.664062 C -16.308594 2.59375 -13.296875 0.425781 -9.773438 0.425781 C -5.609375 0.425781 -2.300781 3.414062 -1.449219 7.347656 C -1.351562 7.789062 -1.296875 8.3125 -1.296875 8.792969 L -1.296875 61.3125 C -1.296875 62.007812 -1.457031 62.734375 -1.660156 63.335938 C -2.839844 66.777344 -5.914062 69.292969 -9.738281 69.292969 C -12.753906 69.292969 -15.398438 67.710938 -16.882812 65.332031 C -22.25 64.847656 -26.492188 60.480469 -26.765625 55.066406 C -29.632812 53.105469 -31.511719 49.816406 -31.511719 46.085938 C -31.511719 45.152344 -31.394531 44.246094 -31.171875 43.382812 C -30.183594 43.914062 -29.101562 44.28125 -27.957031 44.460938 C -27.433594 44.542969 -26.90625 44.582031 -26.386719 44.582031 Z M -19.167969 57.042969 C -18.246094 58.71875 -16.726562 59.941406 -14.882812 60.476562 C -14.214844 60.667969 -13.535156 60.765625 -12.863281 60.765625 C -10.914062 60.765625 -9.027344 59.96875 -7.644531 58.5 C -7.226562 58.058594 -7.246094 57.359375 -7.691406 56.941406 C -8.136719 56.523438 -8.835938 56.546875 -9.253906 56.988281 C -10.542969 58.359375 -12.460938 58.878906 -14.265625 58.355469 C -15.539062 57.984375 -16.59375 57.140625 -17.230469 55.980469 C -17.871094 54.820312 -18.015625 53.480469 -17.644531 52.207031 C -17.476562 51.621094 -17.8125 51.007812 -18.398438 50.839844 C -18.984375 50.667969 -19.597656 51.003906 -19.765625 51.589844 C -20.304688 53.425781 -20.089844 55.363281 -19.167969 57.042969 Z M -19.167969 57.042969 " fill-opacity="1" fill-rule="nonzero"/></g></g></g></g><g fill="#ff66c4" fill-opacity="1"><g transform="translate(48.871193, 292.318347)"><g><path d="M 62.78125 0 L 54.015625 0 L 54.015625 -32.25 L 38.9375 0 L 30.6875 0 L 14.625 -32.9375 L 14.625 0 L 5.84375 0 L 5.84375 -52.578125 L 14.78125 -52.578125 L 34.734375 -11.703125 L 53.859375 -52.578125 L 62.78125 -52.578125 Z M 62.78125 0 "/></g></g></g><g fill="#ff66c4" fill-opacity="1"><g transform="translate(122.980957, 292.318347)"><g><path d="M 6.15625 0 L 6.15625 -52.515625 L 14.921875 -52.515625 L 14.921875 0 Z M 6.15625 0 "/></g></g></g><g fill="#ff66c4" fill-opacity="1"><g transform="translate(149.384745, 292.318347)"><g><path d="M 49.65625 0 L 40.8125 0 L 14.703125 -37.359375 L 14.703125 0 L 5.921875 0 L 5.921875 -52.515625 L 14.78125 -52.515625 L 40.953125 -15.15625 L 40.953125 -52.515625 L 49.65625 -52.515625 Z M 49.65625 0 "/></g></g></g><g fill="#ff66c4" fill-opacity="1"><g transform="translate(210.44287, 292.318347)"><g><path d="M 14.703125 -52.515625 C 17.253906 -52.515625 19.941406 -52.335938 22.765625 -51.984375 C 25.585938 -51.628906 28.335938 -50.953125 31.015625 -49.953125 C 33.691406 -48.953125 36.101562 -47.488281 38.25 -45.5625 C 40.40625 -43.644531 42.132812 -41.109375 43.4375 -37.953125 C 44.738281 -34.804688 45.390625 -30.90625 45.390625 -26.25 C 45.390625 -21.75 44.75 -17.960938 43.46875 -14.890625 C 42.195312 -11.816406 40.484375 -9.289062 38.328125 -7.3125 C 36.179688 -5.332031 33.78125 -3.816406 31.125 -2.765625 C 28.476562 -1.722656 25.726562 -1 22.875 -0.59375 C 20.03125 -0.195312 17.304688 0 14.703125 0 L 5.921875 0 L 5.921875 -52.515625 Z M 14.703125 -8.546875 C 14.703125 -8.546875 15.226562 -8.507812 16.28125 -8.4375 C 17.332031 -8.363281 18.679688 -8.398438 20.328125 -8.546875 C 21.984375 -8.703125 23.75 -9.066406 25.625 -9.640625 C 27.5 -10.210938 29.257812 -11.148438 30.90625 -12.453125 C 32.550781 -13.753906 33.898438 -15.515625 34.953125 -17.734375 C 36.003906 -19.960938 36.53125 -22.800781 36.53125 -26.25 C 36.53125 -29.75 36.003906 -32.625 34.953125 -34.875 C 33.898438 -37.132812 32.550781 -38.910156 30.90625 -40.203125 C 29.257812 -41.503906 27.5 -42.429688 25.625 -42.984375 C 23.75 -43.535156 21.984375 -43.875 20.328125 -44 C 18.679688 -44.125 17.332031 -44.144531 16.28125 -44.0625 C 15.226562 -43.988281 14.703125 -43.953125 14.703125 -43.953125 Z M 14.703125 -8.546875 "/></g></g></g><g fill="#ff66c4" fill-opacity="1"><g transform="translate(265.500247, 292.318347)"><g><path d="M 20.484375 0.75 C 17.484375 0.644531 14.742188 0.0078125 12.265625 -1.15625 C 9.785156 -2.332031 7.804688 -4.046875 6.328125 -6.296875 C 4.859375 -8.546875 4.097656 -11.296875 4.046875 -14.546875 L 12.828125 -14.546875 C 12.929688 -12.398438 13.742188 -10.773438 15.265625 -9.671875 C 16.785156 -8.578125 18.523438 -8.03125 20.484375 -8.03125 C 22.535156 -8.03125 24.320312 -8.628906 25.84375 -9.828125 C 27.363281 -11.023438 28.125 -12.648438 28.125 -14.703125 C 28.125 -16.203125 27.738281 -17.488281 26.96875 -18.5625 C 26.195312 -19.632812 25.222656 -20.472656 24.046875 -21.078125 C 22.867188 -21.679688 21.679688 -22.003906 20.484375 -22.046875 C 20.273438 -22.046875 19.382812 -22.117188 17.8125 -22.265625 C 16.238281 -22.421875 14.503906 -22.925781 12.609375 -23.78125 C 9.859375 -25.082031 7.742188 -26.867188 6.265625 -29.140625 C 4.785156 -31.421875 4.046875 -34.109375 4.046875 -37.203125 C 4.046875 -40.554688 4.820312 -43.421875 6.375 -45.796875 C 7.925781 -48.171875 9.960938 -50.007812 12.484375 -51.3125 C 15.015625 -52.613281 17.679688 -53.265625 20.484375 -53.265625 C 23.535156 -53.265625 26.269531 -52.625 28.6875 -51.34375 C 31.113281 -50.070312 33.039062 -48.3125 34.46875 -46.0625 C 35.894531 -43.8125 36.632812 -41.1875 36.6875 -38.1875 L 27.984375 -38.1875 C 27.929688 -40.382812 27.164062 -41.984375 25.6875 -42.984375 C 24.21875 -43.984375 22.484375 -44.484375 20.484375 -44.484375 C 18.429688 -44.484375 16.640625 -43.882812 15.109375 -42.6875 C 13.585938 -41.488281 12.828125 -39.660156 12.828125 -37.203125 C 12.828125 -35.054688 13.613281 -33.40625 15.1875 -32.25 C 16.757812 -31.101562 18.523438 -30.53125 20.484375 -30.53125 C 20.679688 -30.53125 21.566406 -30.453125 23.140625 -30.296875 C 24.710938 -30.148438 26.425781 -29.65625 28.28125 -28.8125 C 31.082031 -27.5625 33.207031 -25.671875 34.65625 -23.140625 C 36.101562 -20.617188 36.828125 -17.804688 36.828125 -14.703125 C 36.828125 -11.347656 36.050781 -8.519531 34.5 -6.21875 C 32.957031 -3.925781 30.945312 -2.191406 28.46875 -1.015625 C 25.988281 0.160156 23.328125 0.75 20.484375 0.75 Z M 20.484375 0.75 "/></g></g></g></svg>